<?xml version="1.0" encoding="utf-8"?>
<!-- Generator: Adobe Illustrator 25.2.1, SVG Export Plug-In . SVG Version: 6.00 Build 0)  -->
<svg version="1.1" id="圖層_1" xmlns="http://www.w3.org/2000/svg" xmlns:xlink="http://www.w3.org/1999/xlink" x="0px" y="0px"
	 viewBox="0 0 326 83" style="enable-background:new 0 0 326 83;" xml:space="preserve">
<g>
	<path d="M66.62,41.67c-2.43,0.17-5.64,2.26-7.63,3.64c-3.56-2.6-4.94-3.12-7.98-6.33C43.37,31,37.73,23.37,33.13,14.09
		c-5.73,10.76-20.13,27.85-32.7,33.92c-0.17,0.17-0.61-0.61-0.35-0.69c5.64-3.99,23.25-23.59,28.45-38.43h-8.85l-1.65,1.39
		l-3.47-5.03l6.07,0.69h7.37c0.61-0.78,3.82-3.04,4.25-3.47c0.17-0.35,0.95-0.26,1.3,0.26c0.78,0.95,4.77,4.6,5.03,6.07
		c-0.43,1.39-2.69,2.26-3.47,2.78c7.81,13.36,23.51,25.07,31.92,28.02c0.69,0.26,1.82,0.69,1.82,1.47
		C68.87,41.76,67.14,41.59,66.62,41.67z M61.41,80.28H10.23l-1.47,1.04l-2.95-4.68c1.82,0.17,3.73,0.52,5.55,0.52h18.22V60.58H18.73
		l-1.56,1.13l-2.86-4.68c1.73,0.17,3.73,0.52,5.55,0.52h9.72V41.07h-7.89l-1.47,1.21l-2.86-4.77c1.73,0.17,3.73,0.52,5.46,0.52
		h16.57c0.43-0.43,3.64-3.38,4.68-3.38c0.61,0,1.3,0.69,1.73,1.13c0.35,0.35,4.08,3.82,4.08,4.68c0,0.43-0.43,0.61-0.78,0.61H37.73
		c0.61,0.26,1.47,0.69,1.47,1.39c0,0.78-1.13,1.39-1.65,1.73v13.36h5.47c0-0.09,3.47-3.56,4.16-3.56c0.43,0,1.04,0.61,1.3,0.87
		c0.43,0.43,4.51,4.16,4.51,5.12c0,0.52-0.87,0.61-1.21,0.61H37.56v16.57h13.88c0.26-0.26,3.82-4.51,4.77-4.51
		c0.43,0,1.39,1.04,1.65,1.3c0.43,0.43,4.51,4.25,4.51,5.46C62.37,79.93,61.84,80.28,61.41,80.28z"/>
	<path d="M92.82,39.5l-1.3,1.21l-2.86-4.68c1.56,0.17,3.3,0.43,4.86,0.43h50.57c0.61-0.69,2.69-3.73,3.73-3.73
		c0.69,0,1.39,0.61,1.82,1.04c0.95,0.78,4.42,3.38,4.42,4.86c0,0.61-0.43,0.87-1.04,0.87h-31.84c0.78,0.43,4.25,2.34,4.25,3.12
		s-2.52,1.82-3.04,2.08c-0.61,1.73-1.3,3.47-1.91,5.12h13.27c0.35-0.35,2.86-3.21,3.38-3.21c1.04,0,8.15,4.86,8.15,5.55
		c0,0.78-2.26,2.26-2.86,2.69c-1.39,5.47-2.6,10.93-4.16,16.31c-2.26,7.46-7.81,10.58-15.09,11.8c-0.35-2.26-0.61-4.08-2.26-5.73
		c-1.3-1.39-3.3-2.17-5.03-2.86c-0.17-0.09-0.43-0.26-0.43-0.52c0-0.43,0.52-0.52,0.87-0.52c2.43,0.26,4.94,0.61,7.46,0.61
		c1.82,0,3.04-0.52,4.51-1.47c2.95-2.08,5.73-15.61,6.51-19.52h-15.53c-3.3,7.98-9.98,17.7-17.44,22.47
		c-2.78,1.73-5.73,3.47-8.76,4.77c-0.43,0.17-5.38,2.34-5.64,2.34c-0.26,0-0.35-0.09-0.35-0.35s0.26-0.52,0.52-0.69
		c3.82-2.86,7.37-5.73,10.67-9.2c2.86-3.04,5.38-6.51,7.37-10.24c2.52-4.77,5.21-9.8,6.85-15.01c0.78-2.43,1.39-5.03,1.91-7.55
		H92.82z M106.26,8.28c0-1.73-0.26-3.73-0.61-5.38c-0.17-0.78-0.95-1.73-0.95-2.34c0-0.43,0.35-0.52,0.69-0.52
		c1.3,0,8.33,2,9.63,2.52c0.35,0.17,0.78,0.35,0.78,0.78c0,0.78-2.34,2.43-2.69,2.78v6.51h14.92V7.5c0-1.3-0.17-2.78-0.43-4.08
		c-0.09-0.78-0.69-1.73-0.69-2.52c0-0.35,0.09-0.52,0.52-0.52c0.52,0,1.13,0.17,1.65,0.26c0.35,0.09,8.85,2,8.85,3.38
		c0,0.78-2.26,2.34-2.6,2.69v5.9h9.28c0.52-0.61,3.21-3.9,3.73-3.9c0.43,0,1.47,0.87,1.82,1.13l3.47,3.04
		c0.61,0.43,1.3,1.13,1.3,1.91c0,0.69-0.69,0.87-1.3,0.87h-18.3v2.6c0,1.82,0.26,3.73,0.35,5.55c-2.69,0.69-5.46,1.04-8.07,1.82
		c0.09-2.26,0.43-4.6,0.43-6.77v-3.21h-14.92v2.78c0,1.82,0.26,3.82,0.43,5.64c-2.6,0.69-5.2,1.13-7.81,1.74
		c0.26-3.3,0.61-6.77,0.52-10.15H92.9l-1.21,1.3l-2.86-4.68c1.56,0.09,3.21,0.35,4.77,0.35h12.67V8.28z M115.8,21.03
		c1.04,0,3.21,0.95,4.25,1.48c2.86,1.39,6.94,4.34,6.94,7.98c0,2.34-1.47,4.77-4.08,4.77c-4.68,0-4.08-5.46-4.94-8.59
		c-0.17-0.78-0.43-1.47-0.78-2.26c-0.26-0.52-0.52-1.13-0.87-1.56c-0.26-0.35-1.04-1.13-1.04-1.56
		C115.28,21.03,115.54,21.03,115.8,21.03z"/>
	<path d="M180.7,43.32l-1.3,0.87l-3.12-4.25c1.91,0.17,3.99,0.52,5.9,0.52h10.15v-3.82c0-1.3,0-2.6-0.35-3.82
		c-0.17-0.78-0.78-1.56-0.78-2.26c0-0.52,0.61-0.61,0.95-0.61c1.3,0,9.11,2.08,9.11,3.3c0,0.78-1.56,1.91-2.08,2.26v4.94h4.51
		c0.43-0.52,2.86-3.56,3.82-3.56c1.21,0,3.99,2.95,4.68,3.64c0.43,0.43,1.13,1.13,1.13,1.82c0,0.52-0.52,0.95-1.04,0.95h-13.1v3.56
		c4.16,1.39,11.54,4.34,11.54,9.63c0,1.91-1.3,3.64-3.21,3.64c-3.38,0-3.47-3.3-4.25-5.73c-0.26-0.78-0.69-1.56-1.04-2.26
		c-0.95-1.73-1.65-2.52-3.04-3.99V70.3c0,2.95,0.26,5.99,0.35,8.94c-2.43,1.21-5.03,2-7.72,2.43c0.17-3.12,0.52-6.33,0.52-9.46v-17
		c-4.08,5.03-8.41,9.89-13.62,13.71c-0.35,0.35-2.26,1.91-2.6,1.91c-0.17,0-0.35-0.17-0.35-0.35c0-0.35,3.9-5.64,4.77-6.85
		c4.25-6.25,7.2-13.27,9.89-20.3H180.7z M179.74,11.66c4.68-0.87,9.37-2.26,13.97-3.64c3.82-1.21,7.89-2.34,11.36-4.16
		c0.52-0.26,1.04-0.52,1.56-0.87c0.69-0.35,1.3-0.95,2-1.3c1.13,0,6.07,7.29,6.07,8.59c0,0.09,0,0.26-0.09,0.35
		c-2.86,0.43-5.9,0.61-8.85,0.87c-8.5,0.69-17,2.08-25.5,2.08c-1.13,0-2.26-0.09-3.38-0.09c-0.52-0.09-0.69-0.35-0.69-0.78
		C176.18,12.18,179.22,11.83,179.74,11.66z M184.86,31.44c-1.3,0-2.69-1.04-2.95-2.26c-0.69-3.3-0.26-4.6-2-7.89
		c-0.26-0.61-1.82-2.26-1.82-2.52s0.09-0.43,0.35-0.43c0.52,0,1.65,0.52,2.17,0.69c3.12,1.39,7.81,4.68,7.81,8.5
		C188.42,29.53,187.03,31.44,184.86,31.44z M195.62,27.01c-2.43,0-2.95-1.47-3.21-3.56c-0.17-1.65-0.43-3.56-1.04-5.12
		c-0.35-0.87-0.69-1.65-1.3-2.43c-0.17-0.17-0.43-0.52-0.43-0.78c0-0.26,0.17-0.52,0.43-0.52c0.43,0,1.47,0.52,1.82,0.78
		c3.12,1.73,7.03,3.99,7.03,8.07C198.91,25.36,197.61,27.01,195.62,27.01z M214.27,76.63c-3.04,1.47-6.16,2.86-9.37,3.82
		c-0.95,0.26-2.34,0.95-3.3,0.95c-0.26,0-0.35-0.09-0.35-0.43s3.64-2.52,4.16-2.78c5.46-3.47,10.58-7.46,15.09-12.14
		c2.86-2.95,5.81-5.99,8.33-9.28c1.47-1.91,2.95-3.82,3.9-5.99c0-0.17,0.35-0.43,0.43-0.43c0.87,0,1.39,0.69,1.91,1.21
		c1.13,1.13,5.55,5.29,5.55,6.51c0,0.95-2.69,0.95-3.3,0.95C230.23,66.05,223.29,72.21,214.27,76.63z M204.2,33.61
		c-0.35,0.43-1.74,2.52-2.26,2.52c-0.17,0-0.35-0.26-0.35-0.43c0-0.35,0.69-2.17,0.87-2.6c1.21-3.73,4.08-14.57,4.08-18.3
		c0-0.52-0.09-0.78,0.52-0.78c0.95,0,8.67,2.52,8.67,3.64c0,0.95-1.47,1.47-2.26,1.73C210.45,24.24,207.67,29.09,204.2,33.61z
		 M223.37,45.49c-2.78,2.26-6.07,4.08-9.28,5.81c-0.52,0.26-2.78,1.56-3.3,1.56c-0.26,0-0.35-0.17-0.35-0.35
		c0-0.26,0.17-0.52,0.43-0.78l4.34-4.34c3.12-3.12,14.4-15.96,15.18-19.78c0.09-0.09,0.17-0.17,0.35-0.17
		c1.04,0,7.89,5.73,7.89,6.85c0,1.3-2.17,1.13-3.04,1.13C231.53,38.81,227.54,42.19,223.37,45.49z M228.23,17.99
		c-4.08,4.77-8.67,9.11-13.62,13.01c-0.52,0.43-2.52,2.26-3.12,2.26c-0.35-0.17-0.43-0.26-0.43-0.43c0-0.26,0.17-0.43,0.35-0.69
		c3.3-4.25,6.33-8.5,9.2-13.1c2.69-4.42,5.55-9.02,7.29-13.88c0.17-0.43,0.43-0.95,0.52-1.39c0.17-0.52,0.09-1.82,0.78-1.82
		c1.47,0,8.76,5.73,8.76,7.37c0,0.95-2.34,0.95-2.95,1.04C232.66,12.87,230.49,15.48,228.23,17.99z"/>
	<path d="M273.34,56.85c5.55-1.91,10.84-3.82,16.31-5.81c0.43-0.17,3.47-1.39,3.73-1.39s0.52,0.26,0.52,0.43
		c0,0.26-0.26,0.52-0.43,0.61c-4.42,3.47-8.76,6.94-13.19,10.41l-5.64,4.42c-0.87,0.69-1.91,1.47-2.69,2.26l-2.08,2.26l-5.73-9.98
		c2-1.91,2-3.99,2-6.59V14.78c0-1.21,0-4.77-0.52-5.73c-0.17-0.35-0.35-0.61-0.35-0.95c0-0.35,0.17-0.43,0.52-0.43
		c1.04,0,8.15,2.52,9.72,3.12c2.52-1.56,10.84-6.59,12.4-9.2c0.09-0.09,0.35-0.69,0.52-0.69c0.52,0,6.85,5.81,6.85,6.94
		c0,0.87-2.34,1.04-3.04,1.21c-5.9,1.82-11.71,3.9-17.7,5.64l-1.21,1.13v14.75h9.2c0.35-0.35,3.38-4.08,4.08-4.08
		c0.43,0,1.56,1.13,1.82,1.47c0.69,0.61,4.16,3.64,4.16,4.77c0,0.61-0.61,0.87-1.21,0.87h-18.04V56.85z M296.16,12.18
		c0-0.87,0.09-1.65-0.09-2.43c0-0.95-0.52-1.82-0.52-2.78c0-0.35,0.09-0.61,0.52-0.61c0.69,0,6.33,2.26,7.37,2.86l2.08,1.21
		l9.28-0.09c0.35-0.35,2.6-3.56,3.38-3.56c0.95,0,5.64,3.21,6.33,3.64c0.43,0.26,1.47,0.95,1.47,1.56c0,0.95-2.43,2.69-2.95,3.12
		v42.42c0,1.04,0,2.34-0.35,3.3c-1.39,3.82-7.98,4.77-11.45,4.94c-0.35-2.78-0.52-4.25-2.78-6.07c-1.21-0.95-1.56-1.04-3.04-1.47
		c-0.26-0.09-0.78-0.26-0.78-0.61c0-0.35,0.43-0.69,0.78-0.69c2.26,0.17,4.51,0.43,6.85,0.43c2.43,0,3.56,0,3.56-2.78V13.65h-11.88
		l-0.69,0.87v54.91c0,3.3,0.43,7.46,0.61,10.84c-2.69,1.13-5.38,1.56-8.24,2c0.17-4.08,0.52-8.24,0.52-12.4V12.18z"/>
</g>
</svg>
