<svg xmlns="http://www.w3.org/2000/svg" width="28.994" height="158.742" viewBox="0 0 28.994 158.742">
  <g id="Group_166" data-name="Group 166" transform="translate(150 -166.5)">
    <path id="Path_70" data-name="Path 70" d="M285.025,151.07a23.33,23.33,0,0,0,4.46,3.274c.252.144.756.288.756.611,0,.288-.72.216-.935.252a7.806,7.806,0,0,0-3.166,1.511A36.045,36.045,0,0,1,282,153.084a17.037,17.037,0,0,1-3.669-5.612,46.718,46.718,0,0,1-2.158-6.188c-3.2,5.649-6.871,11.583-12.374,15.289a14.939,14.939,0,0,1-2.375,1.439c-.107,0-.18-.144-.18-.253,0-.215.4-.5.54-.646.432-.432.827-.936,1.223-1.4a53.676,53.676,0,0,0,5.5-7.734,46.025,46.025,0,0,0,3.454-6.439,17.216,17.216,0,0,0,1.187-3.2c.035-.108.035-.648.251-.648.144,0,1.619.5,1.835.576.468.144,2.554.755,2.554,1.331,0,.252-.647.468-.827.5C278.478,144.559,281.608,147.977,285.025,151.07ZM273.55,161.5h-4.5l-.648.468-1.186-1.942c.72.071,1.547.215,2.3.215h4.029v-5.827h-2.986l-.611.5-1.187-1.978c.72.072,1.547.216,2.266.216h6.583c.18-.18,1.223-1.4,1.655-1.4.251,0,.539.288.719.468.144.144,1.691,1.583,1.691,1.942,0,.181-.181.252-.324.252h-4.424c.252.108.611.288.611.576,0,.323-.468.575-.684.72v4.532h2.266c0-.035,1.439-1.474,1.727-1.474.18,0,.432.252.539.359.18.181,1.871,1.727,1.871,2.123,0,.216-.359.252-.5.252h-5.9v7.878h5.756c.107-.108,1.583-1.871,1.978-1.871.18,0,.575.432.684.54.18.18,1.871,1.762,1.871,2.266a.393.393,0,0,1-.4.36H265.528l-.611.432-1.223-1.943c.755.072,1.547.216,2.3.216h7.555Z" transform="translate(-411.247 28.812)" fill="#1a1311"/>
    <path id="Path_71" data-name="Path 71" d="M263.821,193.584l-.54.5-1.186-1.942a19.183,19.183,0,0,0,2.014.18h20.972c.251-.288,1.115-1.547,1.547-1.547a1.243,1.243,0,0,1,.755.432c.4.324,1.835,1.4,1.835,2.014,0,.252-.18.36-.432.36h-13.2c.323.179,1.762.971,1.762,1.295s-1.044.755-1.259.863c-.252.72-.54,1.439-.792,2.122h5.5c.144-.144,1.186-1.331,1.4-1.331a11.673,11.673,0,0,1,3.381,2.3c0,.324-.935.935-1.187,1.115-.576,2.266-1.079,4.533-1.727,6.763-.935,3.093-3.237,4.389-6.259,4.893a3.762,3.762,0,0,0-.935-2.375,5.733,5.733,0,0,0-2.087-1.187c-.071-.035-.18-.107-.18-.215,0-.181.216-.217.36-.217a28.962,28.962,0,0,0,3.093.252,3.149,3.149,0,0,0,1.871-.611c1.223-.863,2.374-6.476,2.7-8.094h-6.44c-1.367,3.309-4.136,7.338-7.23,9.316a27.262,27.262,0,0,1-3.633,1.979c-.18.071-2.23.971-2.338.971s-.144-.036-.144-.144.108-.216.217-.288a34.345,34.345,0,0,0,4.424-3.813,19.917,19.917,0,0,0,3.057-4.245,38.821,38.821,0,0,0,2.842-6.224,30.732,30.732,0,0,0,.791-3.129Zm5.575-12.95a11.4,11.4,0,0,0-.252-2.23c-.071-.324-.4-.72-.4-.972,0-.18.144-.216.288-.216a27.253,27.253,0,0,1,3.993,1.043c.144.072.324.144.324.324,0,.323-.971,1.008-1.115,1.151v2.7h6.187v-2.123a9.036,9.036,0,0,0-.18-1.69c-.036-.324-.288-.72-.288-1.044,0-.144.036-.216.216-.216a4.493,4.493,0,0,1,.684.108c.144.036,3.669.827,3.669,1.4,0,.323-.935.971-1.079,1.115v2.446H285.3c.216-.252,1.331-1.619,1.547-1.619.18,0,.611.36.756.468l1.438,1.259a1.112,1.112,0,0,1,.54.792c0,.288-.288.359-.54.359h-7.59v1.079c0,.756.107,1.548.144,2.3-1.115.288-2.266.432-3.345.756.036-.935.18-1.907.18-2.806v-1.331h-6.187v1.151c0,.756.107,1.583.18,2.339-1.08.288-2.158.468-3.238.72a40.559,40.559,0,0,0,.216-4.209h-5.539l-.5.54-1.187-1.943c.648.036,1.331.144,1.979.144H269.4Zm3.957,5.287a5.726,5.726,0,0,1,1.762.612c1.186.575,2.878,1.8,2.878,3.309a1.827,1.827,0,0,1-1.691,1.978c-1.942,0-1.69-2.266-2.05-3.561a4.8,4.8,0,0,0-.324-.935,3.788,3.788,0,0,0-.359-.647c-.108-.144-.432-.468-.432-.647C273.138,185.921,273.245,185.921,273.354,185.921Z" transform="translate(-411.446 30.284)" fill="#1a1311"/>
    <path id="Path_72" data-name="Path 72" d="M264.374,235.085l-.54.36-1.295-1.763c.792.072,1.655.216,2.446.216h4.209v-1.583a5.752,5.752,0,0,0-.144-1.583c-.072-.323-.323-.647-.323-.935,0-.215.251-.251.4-.251.539,0,3.777.863,3.777,1.367,0,.323-.647.791-.863.935V233.9h1.87c.181-.216,1.187-1.474,1.583-1.474.5,0,1.655,1.223,1.943,1.511.18.181.468.468.468.756a.432.432,0,0,1-.432.4h-5.432v1.475c1.726.575,4.785,1.8,4.785,3.993a1.419,1.419,0,0,1-1.332,1.511c-1.4,0-1.438-1.367-1.762-2.374a7.265,7.265,0,0,0-.432-.935,6.945,6.945,0,0,0-1.259-1.655v9.173c0,1.223.107,2.482.144,3.706a11.082,11.082,0,0,1-3.2,1.008c.072-1.295.217-2.627.217-3.921v-7.051a31.292,31.292,0,0,1-5.649,5.684,5.165,5.165,0,0,1-1.078.792.155.155,0,0,1-.144-.144c0-.144,1.619-2.338,1.978-2.841a40.527,40.527,0,0,0,4.1-8.418Zm-.4-13.13a54.564,54.564,0,0,0,5.792-1.511,29.5,29.5,0,0,0,4.712-1.726,5.8,5.8,0,0,0,.647-.36c.288-.144.54-.4.827-.539.469,0,2.519,3.021,2.519,3.561a.211.211,0,0,1-.037.144c-1.186.18-2.446.252-3.668.36-3.526.287-7.051.863-10.576.863-.468,0-.935-.036-1.4-.036a.291.291,0,0,1-.288-.324C262.5,222.171,263.762,222.027,263.977,221.955Zm2.123,8.2a1.318,1.318,0,0,1-1.223-.935c-.287-1.367-.107-1.907-.827-3.273-.107-.252-.755-.935-.755-1.044s.036-.18.144-.18a4.333,4.333,0,0,1,.9.288c1.295.575,3.238,1.942,3.238,3.525A1.538,1.538,0,0,1,266.1,230.157Zm4.46-1.835c-1.007,0-1.223-.611-1.331-1.474a8.517,8.517,0,0,0-.432-2.123,3.93,3.93,0,0,0-.539-1.008.581.581,0,0,1-.181-.323.2.2,0,0,1,.181-.216,2.01,2.01,0,0,1,.755.323c1.3.72,2.915,1.655,2.915,3.346A1.392,1.392,0,0,1,270.56,228.323Zm7.734,20.576a25.863,25.863,0,0,1-3.884,1.583,6.511,6.511,0,0,1-1.368.4c-.107,0-.144-.036-.144-.18a9.66,9.66,0,0,1,1.726-1.151,33.651,33.651,0,0,0,6.26-5.036,44.148,44.148,0,0,0,3.454-3.848,12.264,12.264,0,0,0,1.618-2.482c0-.072.144-.181.18-.181.36,0,.576.288.792.5.468.468,2.3,2.194,2.3,2.7,0,.4-1.115.4-1.367.4A36.344,36.344,0,0,1,278.295,248.9Zm-4.172-17.842c-.144.18-.72,1.043-.935,1.043-.072,0-.144-.107-.144-.18a7.557,7.557,0,0,1,.36-1.079,41.136,41.136,0,0,0,1.69-7.591c0-.215-.036-.323.217-.323.4,0,3.6,1.043,3.6,1.511,0,.4-.612.612-.936.72C276.712,227.171,275.561,229.186,274.122,231.057Zm7.949,4.928a24.706,24.706,0,0,1-3.848,2.41,7.839,7.839,0,0,1-1.367.648.132.132,0,0,1-.144-.144.5.5,0,0,1,.181-.323l1.8-1.8c1.3-1.3,5.972-6.619,6.3-8.2a.188.188,0,0,1,.144-.072c.432,0,3.274,2.375,3.274,2.842,0,.539-.9.468-1.26.468C285.454,233.215,283.8,234.618,282.071,235.985Zm2.014-11.4a40.029,40.029,0,0,1-5.648,5.4c-.215.18-1.043.935-1.295.935l-.107-.036a.188.188,0,0,1-.072-.144c0-.107.072-.18.144-.287a63.943,63.943,0,0,0,3.814-5.432,32.561,32.561,0,0,0,3.021-5.756,3.727,3.727,0,0,0,.216-.575c.072-.216.036-.756.324-.756.611,0,3.633,2.375,3.633,3.058,0,.4-.972.4-1.223.432C285.921,222.459,285.021,223.538,284.086,224.581Z" transform="translate(-411.323 32.681)" fill="#1a1311"/>
    <path id="Path_73" data-name="Path 73" d="M266.893,280.509c2.3-.792,4.5-1.583,6.763-2.411.18-.071,1.439-.575,1.547-.575a.233.233,0,0,1,.216.18.334.334,0,0,1-.18.252c-1.835,1.439-3.633,2.878-5.468,4.317l-2.339,1.835a13.892,13.892,0,0,0-1.114.935l-.863.935-2.375-4.137a3.273,3.273,0,0,0,.827-2.734V263.062a8.462,8.462,0,0,0-.216-2.374.884.884,0,0,1-.144-.4c0-.144.071-.181.216-.181a34.3,34.3,0,0,1,4.029,1.3c1.043-.648,4.5-2.734,5.144-3.814.036-.036.144-.287.216-.287.216,0,2.842,2.41,2.842,2.878,0,.359-.972.432-1.26.5-2.446.756-4.856,1.619-7.338,2.338l-.5.468v6.115h3.813c.144-.144,1.4-1.691,1.691-1.691.18,0,.647.469.755.612.288.252,1.727,1.511,1.727,1.978,0,.252-.252.36-.5.36h-7.482Zm9.461-18.526a4.614,4.614,0,0,0-.036-1.007c0-.4-.216-.756-.216-1.151,0-.144.036-.252.216-.252a19.588,19.588,0,0,1,3.058,1.186l.863.5,3.849-.036c.144-.144,1.079-1.474,1.4-1.474a14.627,14.627,0,0,1,2.627,1.511c.18.107.611.4.611.647,0,.4-1.007,1.115-1.223,1.3V280.8a4.3,4.3,0,0,1-.144,1.367c-.575,1.583-3.309,1.978-4.748,2.05a3.054,3.054,0,0,0-1.15-2.517,2.758,2.758,0,0,0-1.26-.612c-.108-.036-.323-.107-.323-.251a.345.345,0,0,1,.323-.288c.935.071,1.871.18,2.841.18,1.008,0,1.475,0,1.475-1.151V262.594h-4.928l-.288.36v22.77c0,1.367.18,3.093.252,4.5a13.935,13.935,0,0,1-3.418.827c.072-1.69.216-3.418.216-5.144Z" transform="translate(-412.08 34.193)" fill="#1a1311"/>
  </g>
</svg>
